<svg width="44" height="44" viewBox="0 0 44 44" fill="none" xmlns="http://www.w3.org/2000/svg">
<rect width="44" height="44" rx="22" fill="#3137C9"/>
<g clip-path="url(#clip0)">
<path d="M31.6479 21.9756L15.8625 15.052C15.6112 14.9436 15.3113 15.0082 15.1364 15.2136C14.9603 15.419 14.9543 15.7109 15.1218 15.9221L20.3128 22.4995L15.1218 29.0769C14.9543 29.288 14.9603 29.5811 15.1352 29.7854C15.253 29.925 15.429 30 15.6075 30C15.6937 30 15.78 29.9827 15.8613 29.9469L31.6467 23.0234C31.8628 22.9287 32 22.7245 32 22.4995C32 22.2745 31.8628 22.0702 31.6479 21.9756Z" fill="white"/>
</g>
<defs>
<clipPath id="clip0">
<rect width="17" height="17" fill="white" transform="translate(15 14)"/>
</clipPath>
</defs>
</svg>
