<svg width="105" height="26" viewBox="0 0 105 26" fill="none" xmlns="http://www.w3.org/2000/svg">
<path d="M52.5 26C59.4036 26 65 20.4036 65 13.5C65 6.59644 59.4036 1 52.5 1C45.5964 1 40 6.59644 40 13.5C40 20.4036 45.5964 26 52.5 26Z" fill="#4D76A1"/>
<path fill-rule="evenodd" clip-rule="evenodd" d="M52.0278 18.9824H53.0089C53.0089 18.9824 53.3053 18.9498 53.4566 18.7867C53.5959 18.637 53.5914 18.3558 53.5914 18.3558C53.5914 18.3558 53.5722 17.0393 54.1832 16.8455C54.7855 16.6545 55.5589 18.1178 56.3787 18.6804C56.9986 19.1063 57.4697 19.0129 57.4697 19.0129L59.6616 18.9824C59.6616 18.9824 60.8082 18.9117 60.2645 18.0102C60.22 17.9364 59.9479 17.3433 58.6348 16.1244C57.2604 14.8488 57.4445 15.0551 59.1001 12.8485C60.1084 11.5046 60.5114 10.6842 60.3855 10.3328C60.2654 9.99809 59.5239 10.0865 59.5239 10.0865L57.0559 10.1019C57.0559 10.1019 56.8729 10.077 56.7372 10.1581C56.6047 10.2376 56.5193 10.423 56.5193 10.423C56.5193 10.423 56.1287 11.4629 55.6077 12.3473C54.5088 14.2135 54.0694 14.312 53.8898 14.1961C53.472 13.926 53.5763 13.1112 53.5763 12.5323C53.5763 10.7238 53.8505 9.96979 53.0421 9.7746C52.7739 9.70975 52.5764 9.66697 51.8904 9.66006C51.0098 9.65093 50.2644 9.66274 49.8424 9.86952C49.5616 10.007 49.345 10.3134 49.477 10.331C49.6401 10.3528 50.0095 10.4306 50.2054 10.6973C50.4583 11.0414 50.4494 11.8141 50.4494 11.8141C50.4494 11.8141 50.5946 13.943 50.11 14.2075C49.7773 14.3888 49.321 14.0185 48.3412 12.3255C47.8392 11.4583 47.4602 10.4997 47.4602 10.4997C47.4602 10.4997 47.3871 10.3205 47.2567 10.2247C47.0985 10.1086 46.8775 10.0716 46.8775 10.0716L44.5323 10.087C44.5323 10.087 44.1802 10.0968 44.051 10.2499C43.936 10.386 44.0418 10.6677 44.0418 10.6677C44.0418 10.6677 45.8779 14.9633 47.9568 17.128C49.8631 19.1127 52.0278 18.9824 52.0278 18.9824Z" fill="white"/>
<g clip-path="url(#clip0)">
<path d="M92.5 26C99.4035 26 105 20.4037 105 13.5002C105 6.59679 99.4035 1.00045 92.5 1.00045C85.5966 1.00045 80.0002 6.59679 80.0002 13.5002C80.0002 20.4037 85.5966 26 92.5 26Z" fill="#CB2027"/>
<path d="M93.509 17.7387C92.564 17.6656 92.1669 17.197 91.4258 16.7472C91.0185 18.8842 90.5207 20.9328 89.0463 22.0031C88.5906 18.773 89.7143 16.347 90.2362 13.7718C89.3467 12.2745 90.3431 9.26062 92.2193 10.0033C94.5284 10.9164 90.2201 15.5709 93.1123 16.1522C96.1318 16.7592 97.3644 10.9131 95.4918 9.01151C92.7863 6.26614 87.6167 8.94912 88.2524 12.8792C88.4073 13.84 89.4001 14.1317 88.649 15.4575C86.9175 15.074 86.401 13.7083 86.4674 11.8877C86.5746 8.90745 89.1452 6.82074 91.7237 6.53196C94.9847 6.16698 98.0454 7.7294 98.4678 10.7967C98.9431 14.2587 96.9956 18.0079 93.509 17.7387Z" fill="#F1F2F2"/>
</g>
<g clip-path="url(#clip1)">
<path d="M1.5625 1.70104C-0.402079 3.74166 4.11272e-06 5.90937 4.11272e-06 12.4948C4.11272e-06 17.9635 -0.954163 23.4458 4.03959 24.7365C5.59896 25.1375 19.4156 25.1375 20.9729 24.7344C23.0521 24.1979 24.7438 22.5115 24.975 19.5708C25.0073 19.1604 25.0073 5.83646 24.974 5.41771C24.7281 2.28541 22.8 0.480206 20.2594 0.114581C19.6771 0.0302058 19.5604 0.0052058 16.5729 -2.53692e-06C5.97605 0.0052058 3.65313 -0.466669 1.5625 1.70104Z" fill="url(#paint0_linear)"/>
<path d="M12.4979 3.2698C8.71563 3.2698 5.12397 2.93334 3.75209 6.45417C3.18543 7.90834 3.26772 9.79688 3.26772 12.501C3.26772 14.874 3.19168 17.1042 3.75209 18.5469C5.12084 22.0698 8.74168 21.7323 12.4958 21.7323C16.1177 21.7323 19.8521 22.1094 21.2406 18.5469C21.8083 17.0781 21.725 15.2177 21.725 12.501C21.725 8.8948 21.924 6.56667 20.175 4.81876C18.4042 3.04792 16.0094 3.2698 12.4938 3.2698H12.4979ZM11.6708 4.93334C19.5604 4.92084 20.5646 4.04376 20.0104 16.2281C19.8135 20.5375 16.5323 20.0646 12.499 20.0646C5.1448 20.0646 4.93334 19.8542 4.93334 12.4969C4.93334 5.05417 5.51668 4.93751 11.6708 4.93126V4.93334ZM17.425 6.46563C16.8135 6.46563 16.3177 6.96147 16.3177 7.57292C16.3177 8.18438 16.8135 8.68022 17.425 8.68022C18.0365 8.68022 18.5323 8.18438 18.5323 7.57292C18.5323 6.96147 18.0365 6.46563 17.425 6.46563ZM12.4979 7.76042C9.88022 7.76042 7.75834 9.88334 7.75834 12.501C7.75834 15.1188 9.88022 17.2406 12.4979 17.2406C15.1156 17.2406 17.2365 15.1188 17.2365 12.501C17.2365 9.88334 15.1156 7.76042 12.4979 7.76042ZM12.4979 9.42397C16.5656 9.42397 16.5708 15.5781 12.4979 15.5781C8.43126 15.5781 8.42501 9.42397 12.4979 9.42397Z" fill="white"/>
</g>
<defs>
<linearGradient id="paint0_linear" x1="1.61044" y1="23.4032" x2="24.8453" y2="3.29372" gradientUnits="userSpaceOnUse">
<stop stop-color="#8E7F42"/>
<stop offset="0.5" stop-color="#FF543E"/>
<stop offset="1" stop-color="#C837AB"/>
</linearGradient>
<clipPath id="clip0">
<rect width="25" height="25" fill="white" transform="translate(80 1)"/>
</clipPath>
<clipPath id="clip1">
<rect width="25" height="25" fill="white"/>
</clipPath>
</defs>
</svg>
